<?xml version="1.0" standalone="no"?>
<!DOCTYPE svg PUBLIC "-//W3C//DTD SVG 1.0//EN" "http://www.w3.org/TR/2001/REC-SVG-20010904/DTD/svg10.dtd">
<svg xmlns="http://www.w3.org/2000/svg" xmlns:xlink="http://www.w3.org/1999/xlink" id="body_1" width="140" height="60">

<g transform="matrix(2.5 0 0 2.5 0 0)">
	<g transform="matrix(0.07079646 0 0 0.07079646 0.2123894 -0)">
		<g transform="matrix(0.1 0 -0 -0.1 0 339)">
            <path d="M3813 3258C 3526 3234 3261 3020 3164 2735C 3131 2639 3120 2464 3140 2353C 3185 2089 3392 1853 3655 1764C 3752 1732 3926 1720 4036 1739C 4301 1785 4534 1989 4627 2255C 4652 2329 4654 2346 4655 2495C 4655 2645 4653 2660 4627 2735C 4586 2852 4527 2944 4436 3036C 4265 3207 4063 3279 3813 3258zM4027 3174C 4178 3143 4288 3082 4397 2967C 4524 2833 4584 2683 4584 2495C 4584 2296 4524 2153 4381 2009C 4237 1866 4094 1806 3895 1806C 3696 1806 3553 1866 3409 2009C 3266 2153 3206 2296 3206 2495C 3206 2569 3212 2626 3224 2670C 3242 2736 3316 2890 3330 2890C 3334 2890 3343 2883 3350 2875C 3359 2865 3382 2860 3425 2860L3425 2860L3489 2860L3520 2915C 3550 2967 3550 2970 3534 2995C 3525 3009 3515 3020 3511 3020C 3507 3020 3494 2996 3481 2966L3481 2966L3459 2913L3402 2907C 3371 2904 3344 2903 3341 2906C 3338 2908 3365 2940 3401 2976C 3571 3149 3800 3221 4027 3174z" stroke="none" fill="#000000" fill-rule="nonzero" />
            <path d="M4256 2995C 4240 2970 4240 2967 4270 2915L4270 2915L4301 2860L4365 2860C 4409 2860 4431 2865 4440 2875C 4458 2896 4451 2900 4386 2907L4386 2907L4331 2913L4309 2966C 4296 2996 4283 3020 4279 3020C 4275 3020 4265 3009 4256 2995z" stroke="none" fill="#000000" fill-rule="nonzero" />
            <path d="M3559 2839L3525 2789L3458 2793C 3389 2797 3379 2792 3400 2760C 3405 2752 3438 2741 3474 2735L3474 2735L3540 2724L3568 2755C 3634 2827 3633 2825 3615 2859C 3607 2876 3598 2890 3596 2890C 3594 2890 3577 2867 3559 2839z" stroke="none" fill="#000000" fill-rule="nonzero" />
            <path d="M4175 2859C 4157 2825 4156 2827 4222 2755L4222 2755L4250 2724L4317 2735C 4380 2745 4395 2756 4399 2791C 4400 2795 4370 2795 4333 2793L4333 2793L4265 2788L4231 2839C 4212 2867 4195 2890 4194 2890C 4192 2890 4183 2876 4175 2859z" stroke="none" fill="#000000" fill-rule="nonzero" />
            <path d="M3615 2690L3565 2640L3510 2655C 3430 2677 3420 2675 3429 2644C 3435 2622 3448 2613 3505 2594C 3581 2568 3577 2567 3643 2629C 3679 2663 3686 2686 3672 2722C 3666 2737 3657 2732 3615 2690z" stroke="none" fill="#000000" fill-rule="nonzero" />
            <path d="M4114 2706C 4108 2674 4111 2665 4136 2638C 4152 2622 4177 2600 4191 2590C 4216 2571 4218 2571 4285 2594C 4342 2613 4355 2622 4361 2644C 4370 2675 4361 2677 4280 2655L4280 2655L4225 2641L4173 2692L4121 2743L4114 2706z" stroke="none" fill="#000000" fill-rule="nonzero" />
            <path d="M3645 2530C 3618 2508 3590 2490 3584 2490C 3578 2490 3547 2501 3516 2515C 3445 2546 3440 2546 3440 2512C 3440 2486 3448 2479 3510 2446C 3587 2406 3582 2405 3667 2459C 3707 2483 3710 2488 3710 2528C 3710 2551 3707 2570 3703 2569C 3698 2569 3673 2551 3645 2530z" stroke="none" fill="#000000" fill-rule="nonzero" />
            <path d="M4080 2528C 4080 2488 4083 2483 4123 2459C 4208 2405 4203 2406 4280 2446C 4342 2479 4350 2486 4350 2512C 4350 2546 4345 2546 4274 2515C 4243 2501 4213 2490 4207 2490C 4201 2490 4173 2508 4144 2530C 4115 2552 4088 2570 4085 2570C 4082 2570 4080 2551 4080 2528z" stroke="none" fill="#000000" fill-rule="nonzero" />
            <path d="M3450 2368C 3451 2340 3459 2329 3507 2295C 3568 2251 3572 2251 3646 2285C 3692 2305 3698 2311 3702 2344C 3704 2364 3702 2380 3698 2380C 3693 2380 3664 2367 3632 2351L3632 2351L3575 2322L3540 2347C 3521 2360 3493 2378 3478 2386C 3450 2400 3450 2400 3450 2368z" stroke="none" fill="#000000" fill-rule="nonzero" />
            <path d="M4273 2361L4214 2323L4159 2351C 4088 2388 4083 2387 4088 2344C 4092 2311 4098 2305 4144 2285C 4218 2251 4222 2251 4283 2295C 4331 2329 4339 2340 4340 2368C 4340 2385 4338 2400 4337 2400C 4335 2400 4306 2383 4273 2361z" stroke="none" fill="#000000" fill-rule="nonzero" />
            <path d="M3436 2234C 3430 2213 3437 2200 3472 2162C 3495 2136 3518 2113 3523 2111C 3528 2109 3559 2113 3592 2120C 3640 2131 3653 2138 3661 2157C 3680 2206 3675 2209 3609 2189L3609 2189L3548 2170L3495 2215L3442 2260L3436 2234z" stroke="none" fill="#000000" fill-rule="nonzero" />
            <path d="M4294 2214L4242 2170L4181 2189C 4115 2209 4110 2206 4129 2157C 4137 2138 4150 2131 4198 2120C 4231 2113 4262 2109 4267 2111C 4272 2113 4295 2136 4319 2162C 4355 2202 4361 2213 4353 2234L4353 2234L4345 2259L4294 2214z" stroke="none" fill="#000000" fill-rule="nonzero" />
            <path d="M3403 2108C 3394 2088 3397 2076 3424 2032L3424 2032L3455 1980L3520 1983C 3578 1985 3586 1988 3599 2012C 3608 2027 3612 2041 3610 2043C 3607 2046 3580 2044 3550 2039C 3490 2029 3496 2026 3440 2099L3440 2099L3414 2133L3403 2108z" stroke="none" fill="#000000" fill-rule="nonzero" />
            <path d="M4336 2081C 4296 2027 4305 2030 4210 2045C 4176 2050 4171 2037 4196 2002C 4209 1983 4220 1980 4274 1980C 4329 1980 4338 1983 4348 2003C 4354 2015 4368 2039 4379 2055C 4396 2081 4397 2088 4386 2109C 4373 2132 4373 2132 4336 2081z" stroke="none" fill="#000000" fill-rule="nonzero" />
            <path d="M568 3096C 401 3027 265 2855 224 2660C 198 2535 221 2376 276 2311C 305 2276 290 2283 700 2108C 868 2036 1272 1863 1598 1723C 1924 1584 2250 1450 2323 1426C 2396 1401 2704 1300 3008 1199C 3311 1099 3560 1014 3560 1010C 3560 1001 3019 737 2947 711C 2862 680 2793 675 2728 694C 2653 716 2643 715 2572 680C 2501 644 2440 581 2440 544C 2440 454 2515 286 2591 208C 2631 166 2641 160 2678 160C 2730 160 2822 191 2864 223C 2883 238 2902 266 2913 298C 2937 367 3006 440 3098 493C 3205 555 3445 674 3689 787L3689 787L3894 882L4054 809C 4267 712 4588 553 4689 495C 4784 440 4853 368 4877 298C 4888 266 4907 238 4926 223C 4968 191 5060 160 5112 160C 5149 160 5159 166 5199 208C 5275 286 5350 454 5350 544C 5350 581 5289 644 5218 680C 5147 715 5137 716 5062 694C 4997 675 4928 680 4843 711C 4771 737 4230 1001 4230 1010C 4230 1014 4479 1099 4783 1199C 5086 1300 5394 1401 5467 1426C 5540 1450 5866 1584 6192 1723C 6518 1863 6922 2036 7090 2108C 7500 2283 7485 2276 7514 2311C 7569 2376 7592 2535 7566 2660C 7557 2701 7532 2773 7509 2820C 7430 2980 7267 3109 7131 3117L7131 3117L7075 3121L6780 2955C 6618 2863 6307 2689 6090 2568C 5337 2147 5260 2101 4960 1896C 4459 1552 4150 1345 4021 1266C 3914 1201 3894 1192 3876 1202C 3773 1257 3466 1460 2845 1885C 2550 2087 2454 2146 1950 2427C 1832 2494 1535 2660 1290 2797C 1045 2935 815 3063 779 3083C 700 3127 651 3130 568 3096zM739 2995C 906 2911 1877 2372 2315 2120C 2507 2009 3120 1617 3530 1344C 3604 1294 3702 1232 3748 1206C 3793 1180 3830 1157 3830 1154C 3830 1152 3816 1143 3799 1135C 3769 1119 3768 1120 3643 1185C 3523 1248 3350 1355 2865 1663C 2483 1907 2448 1926 1785 2280C 966 2717 696 2860 689 2860C 681 2860 636 2761 641 2756C 645 2752 1892 2093 2213 1926C 2305 1878 2380 1837 2380 1835C 2380 1832 2338 1850 2288 1874C 2121 1952 646 2652 619 2666C 593 2679 592 2678 555 2622C 512 2557 409 2428 404 2433C 402 2435 416 2465 434 2501C 494 2613 595 2884 584 2902C 581 2907 571 2909 562 2906C 552 2904 529 2899 509 2896C 489 2892 448 2874 417 2856C 386 2837 360 2825 360 2828C 360 2832 378 2856 399 2881C 466 2958 583 3028 648 3030C 660 3030 701 3014 739 2995zM7253 2993C 7303 2966 7430 2850 7430 2831C 7430 2826 7404 2837 7373 2856C 7342 2874 7301 2892 7281 2896C 7261 2899 7238 2904 7228 2906C 7219 2909 7209 2907 7206 2902C 7195 2883 7294 2617 7356 2501C 7374 2465 7388 2435 7386 2433C 7381 2428 7278 2557 7235 2622C 7198 2678 7197 2679 7171 2666C 7144 2652 5669 1952 5503 1874C 5452 1850 5410 1832 5410 1835C 5410 1837 5485 1878 5578 1926C 5898 2093 7145 2752 7149 2756C 7154 2761 7109 2860 7101 2860C 7094 2860 6827 2719 6001 2278C 5572 2049 5275 1884 5136 1797C 5020 1723 4779 1571 4600 1458C 4421 1345 4192 1209 4090 1155C 3686 941 2958 581 2910 571C 2882 565 2834 560 2804 560L2804 560L2748 560L2755 527C 2762 494 2801 371 2816 335C 2823 317 2822 316 2806 329C 2788 344 2680 556 2680 577C 2680 584 2678 590 2675 590C 2661 590 2593 550 2577 533C 2561 514 2561 510 2580 435C 2591 392 2598 355 2595 352C 2587 343 2528 478 2523 519C 2518 556 2520 560 2558 588C 2624 636 2653 644 2704 631C 2774 614 2863 618 2937 642C 3020 669 3638 978 3890 1119C 3992 1176 4197 1302 4345 1400C 4972 1812 5268 2001 5475 2120C 5866 2345 6828 2880 7055 2999C 7127 3036 7174 3035 7253 2993zM4473 820C 4650 733 4823 652 4857 640C 4926 618 5017 614 5086 631C 5137 644 5166 636 5232 588C 5270 560 5272 556 5267 519C 5262 478 5203 343 5195 352C 5192 355 5199 392 5210 435C 5229 510 5229 514 5213 533C 5197 550 5129 590 5115 590C 5112 590 5110 584 5110 577C 5110 556 5002 344 4984 329C 4968 316 4967 317 4974 335C 4989 370 5027 494 5034 526L5034 526L5041 557L4957 562C 4874 566 4869 568 4659 669C 4541 725 4364 813 4265 865C 4100 951 4087 960 4110 969C 4124 974 4139 979 4143 979C 4148 980 4296 908 4473 820z" stroke="none" fill="#000000" fill-rule="nonzero" />
		</g>
	</g>
</g>
</svg>